<?xml version="1.0" standalone="no"?>
<!DOCTYPE svg PUBLIC "-//W3C//DTD SVG 20010904//EN"
 "http://www.w3.org/TR/2001/REC-SVG-20010904/DTD/svg10.dtd">
<svg version="1.0" xmlns="http://www.w3.org/2000/svg"
 width="1000.000000pt" height="1000.000000pt" viewBox="0 0 1000.000000 1000.000000"
 preserveAspectRatio="xMidYMid meet">

<g transform="translate(0.000000,1000.000000) scale(0.100000,-0.100000)"
fill="#000000" stroke="none">
<path d="M9390 8773 c-31 -32 -165 -168 -296 -303 -131 -135 -321 -329 -422
-432 l-184 -187 7 62 c12 114 64 352 98 452 41 122 74 187 132 267 55 73 60
115 18 148 -32 25 -67 22 -111 -9 -15 -10 -45 -22 -66 -26 -101 -17 -243 -127
-320 -247 -85 -134 -164 -330 -214 -531 l-27 -107 -80 71 c-93 83 -265 199
-384 258 -371 187 -834 233 -1238 125 -616 -164 -1093 -641 -1257 -1257 -32
-119 -56 -275 -56 -368 l-1 -74 -62 67 c-138 148 -322 286 -506 377 -371 187
-834 233 -1238 125 -685 -183 -1189 -746 -1297 -1450 -23 -144 -21 -398 4
-539 10 -60 18 -111 16 -112 -6 -6 -85 157 -96 197 -16 61 -35 80 -81 80 -29
0 -42 -6 -59 -27 -20 -25 -21 -35 -15 -123 15 -223 82 -527 175 -795 141 -407
318 -707 512 -871 l57 -48 -337 -112 c-185 -61 -343 -109 -349 -107 -10 4 -13
53 -13 197 0 493 -38 931 -106 1233 -79 352 -247 695 -438 893 -65 67 -102 77
-149 40 -40 -31 -48 -78 -54 -285 -9 -319 34 -544 193 -1009 215 -627 264
-779 289 -890 14 -65 24 -121 21 -124 -10 -10 -163 154 -239 256 -172 231
-328 522 -597 1112 -51 113 -104 215 -117 227 -32 30 -74 29 -102 -1 -21 -23
-23 -33 -22 -136 3 -226 62 -586 142 -870 102 -358 233 -610 416 -799 45 -47
81 -86 80 -87 -1 -1 -63 -16 -137 -33 -204 -46 -386 -70 -633 -82 -122 -5
-228 -12 -234 -14 -10 -3 -13 -105 -13 -462 l0 -458 82 2 c46 2 90 3 98 3 245
-1 455 18 730 66 236 41 213 41 244 3 65 -79 219 -227 316 -304 523 -411 1236
-654 2278 -775 290 -33 1118 -67 1174 -48 53 19 77 109 39 147 -12 12 -39 21
-73 25 -186 18 -277 31 -473 67 -656 120 -1390 351 -1856 584 -128 65 -303
173 -401 249 -79 60 -203 184 -194 193 2 2 33 -15 70 -37 118 -72 308 -147
626 -250 409 -131 618 -230 772 -367 192 -170 322 -164 297 14 -29 206 -200
441 -464 639 -153 114 -373 236 -517 286 -38 12 -68 25 -68 28 0 9 455 160
482 160 28 0 251 -111 708 -350 839 -440 1400 -648 1825 -676 l100 -7 53 42
c42 34 52 47 52 72 0 37 -39 79 -73 79 -50 0 -207 32 -327 66 -132 38 -446
156 -615 230 -171 77 -553 280 -543 290 2 2 42 -8 88 -22 290 -85 800 -171
1131 -190 139 -8 164 -3 184 36 20 39 19 54 -7 85 -20 23 -34 27 -118 36 -371
38 -934 318 -1181 587 -60 66 -126 168 -115 179 3 3 94 45 203 93 109 48 241
108 295 133 l96 45 22 -23 c68 -72 347 -248 501 -314 74 -32 76 -35 94 -85 53
-151 201 -393 324 -531 342 -384 812 -595 1325 -595 618 0 1161 300 1499 827
176 275 267 593 267 934 0 518 -210 987 -595 1330 -94 84 -265 199 -385 259
-47 24 -79 45 -73 47 7 3 55 -9 105 -26 125 -41 349 -95 483 -118 155 -25 523
-25 645 1 206 43 357 105 390 158 26 43 25 71 -3 103 -20 24 -31 27 -137 36
-146 12 -244 31 -395 76 -205 61 -423 158 -607 270 l-57 35 28 57 c15 31 43
97 61 146 18 50 37 94 41 99 4 4 58 14 121 21 375 44 701 144 1128 347 167 79
197 110 169 172 -20 44 -44 46 -334 37 -356 -11 -670 4 -830 39 -92 20 -175
51 -185 70 -22 41 -12 89 32 145 40 52 43 54 102 60 223 25 547 136 786 270
238 134 374 286 395 442 6 50 5 55 -23 83 -28 28 -36 30 -99 30 -138 -1 -361
-42 -497 -92 -43 -15 -81 -27 -83 -24 -2 2 34 61 80 132 211 323 342 611 369
808 10 79 10 82 -17 133 -50 91 -95 95 -175 16z m-1970 -924 c106 -48 170
-147 170 -264 -1 -165 -121 -285 -285 -285 -164 0 -284 120 -285 285 0 164
120 285 285 285 49 0 84 -7 115 -21z m-4648 -1765 c61 -20 117 -70 153 -135
26 -47 30 -64 30 -134 0 -70 -4 -87 -30 -134 -55 -99 -142 -151 -255 -151
-113 0 -200 52 -255 151 -26 47 -30 64 -30 134 0 70 4 87 30 134 35 63 92 115
149 135 55 19 152 20 208 0z m2854 -841 l62 -50 -167 -124 c-91 -67 -172 -127
-179 -132 -21 -16 -21 -4 -1 68 29 103 59 300 59 384 l0 75 83 -85 c45 -47
110 -108 143 -136z m2744 -929 c98 -53 150 -141 150 -254 0 -113 -52 -200
-151 -255 -47 -26 -64 -30 -134 -30 -70 0 -87 4 -134 30 -99 55 -151 142 -151
256 0 129 71 228 197 275 60 23 159 13 223 -22z"/>
</g>
</svg>
