<?xml version="1.0" encoding="UTF-8"?>
<svg version="1.1" xmlns="http://www.w3.org/2000/svg" width="1000" height="1000">
<path d="M0 0 C4.01489897 4.39606026 5.93873076 8.75424656 6.1015625 14.72265625 C4.46673757 30.37687606 -1.35338576 44.86764085 -8 59 C-8.43820068 59.94214355 -8.43820068 59.94214355 -8.88525391 60.90332031 C-17.28600617 78.81812167 -27.77472802 95.73222436 -39 112 C-38.20903931 111.75092896 -38.20903931 111.75092896 -37.40209961 111.49682617 C-22.70764278 106.89952622 -8.46439176 103.33234831 6.875 101.75 C7.74310303 101.65750977 8.61120605 101.56501953 9.50561523 101.46972656 C15.8611077 100.88293461 22.79081824 100.27800003 28.5625 103.375 C31.34350637 108.45335945 30.73910447 114.1004363 29.33984375 119.58984375 C20.51686902 143.7670862 -4.10351261 156.71084169 -26 167 C-45.32000455 175.7114249 -67.45257352 184.23679407 -88.8125 185.4375 C-92.33114467 185.69702268 -92.91164615 185.9308535 -95.875 188.25 C-96.57625 189.1575 -97.2775 190.065 -98 191 C-98.763125 191.721875 -99.52625 192.44375 -100.3125 193.1875 C-102.81004085 197.35006809 -102.33119549 201.26206454 -102 206 C-89.72145892 209.90806838 -77.53911792 212.4917257 -64.703125 213.69140625 C-64.03058937 213.75506441 -63.35805374 213.81872257 -62.66513824 213.88430977 C-43.18059715 215.67711195 -23.64487553 215.17558771 -4.10369873 214.90020752 C1.08035097 214.82781555 6.26405877 214.77114047 11.44850922 214.73730659 C13.84210275 214.71529006 16.23451643 214.66994424 18.62774658 214.62376404 C20.08027248 214.61244305 21.53280812 214.60229067 22.98535156 214.59350586 C24.24784729 214.5755748 25.51034302 214.55764374 26.81109619 214.53916931 C30 215 30 215 32.39935303 216.77931213 C34.31250136 219.43355468 34.55928917 221.66624827 34.7265625 224.90234375 C32.89328036 230.19520671 27.06186903 232.59597427 22.38671875 234.98046875 C20.15930638 236.06122406 17.92585336 237.12959067 15.6875 238.1875 C14.79954239 238.61027725 14.79954239 238.61027725 13.89364624 239.04159546 C-24.52023074 257.30243473 -66.11117117 271.83454269 -109 273 C-109.10699219 273.66386719 -109.21398437 274.32773437 -109.32421875 275.01171875 C-110.16724456 278.73954966 -111.45811646 282.24776252 -112.8125 285.8125 C-113.21299561 286.87718506 -113.21299561 286.87718506 -113.62158203 287.96337891 C-115.47242551 292.81029613 -117.60574378 297.39566112 -120 302 C-120 302.66 -120 303.32 -120 304 C-86.3216593 323.02202576 -51.48117278 339.16975737 -12.24487305 341.14160156 C-6.99036884 341.48082068 -3.74084097 341.91976822 0 346 C1.120324 348.96556353 1.42877185 350.82150428 0.33203125 353.8359375 C-4.56327858 363.30686345 -16.99072376 366.01236728 -26.54296875 369.171875 C-44.63590437 374.3929219 -63.25212141 375.80458664 -82 375 C-82.87027832 374.96277832 -83.74055664 374.92555664 -84.63720703 374.88720703 C-106.85267004 373.75549936 -128.70534323 368.63254256 -149.9375 362.19921875 C-152.9377513 361.29027898 -155.90526129 360.53034837 -159 360 C-157.58460938 360.72703125 -157.58460938 360.72703125 -156.140625 361.46875 C-147.73470573 365.83524678 -139.70473399 370.45940456 -132 376 C-130.40478516 377.14662109 -130.40478516 377.14662109 -128.77734375 378.31640625 C-106.5221734 394.82445103 -89.97708651 415.72201175 -77 440 C-76.48397217 440.96389648 -76.48397217 440.96389648 -75.95751953 441.94726562 C-65.04172105 462.76161972 -58.64941396 487.51286189 -58 511 C-57.97421875 511.69287109 -57.9484375 512.38574219 -57.921875 513.09960938 C-56.56644063 552.84772228 -67.59841877 591.69377296 -91 624 C-91.763125 625.06089844 -92.52625 626.12179687 -93.3125 627.21484375 C-120.30609593 663.63008564 -161.78236308 688.95814359 -206.63671875 695.91015625 C-253.72245886 702.64647697 -299.9842025 692.59295864 -339 665 C-339.59586914 664.58057129 -340.19173828 664.16114258 -340.80566406 663.72900391 C-366.00466195 645.69220007 -394.91607266 614.20729948 -401.6875 582.8125 C-403.62354632 578.66382932 -406.88067706 577.83923387 -410.9375 576.3125 C-426.08628733 570.07458435 -439.65283953 561.7569405 -452.58203125 551.7265625 C-453.44948975 551.05415527 -453.44948975 551.05415527 -454.33447266 550.36816406 C-456 549 -456 549 -457.56787109 547.46777344 C-459.21609896 545.8109476 -459.21609896 545.8109476 -462 544 C-466.35109298 545.08033972 -470.3001492 546.98790032 -474.33984375 548.90625 C-475.57012905 549.48686024 -476.80043592 550.0674248 -478.03076172 550.64794922 C-478.66882751 550.9505365 -479.30689331 551.25312378 -479.96429443 551.56488037 C-493.52551253 557.99166197 -507.18997922 564.1238341 -521 570 C-499.9769517 606.79943541 -453.94359411 629.46666815 -414.41748047 640.51293945 C-405.08390166 643.01723821 -396.04523804 644.75738142 -386.3984375 645.3828125 C-382.47764491 646.09486449 -380.72342245 647.11758302 -378 650 C-377.1369867 652.74448951 -377.3633482 655.20676192 -378 658 C-379.87015094 660.43119623 -381.28138345 661.64069173 -384 663 C-418.40137641 664.46683939 -454.74610003 656.65801234 -488.125 649.375 C-488.79500031 649.22888275 -489.46500061 649.0827655 -490.15530396 648.93222046 C-498.16916411 647.17417934 -506.11020963 645.25218024 -514 643 C-473.13458673 666.48723317 -424.20466291 692.18959732 -376.5300293 697.07861328 C-371.97627272 697.56000643 -368.75387629 698.13366811 -365 701 C-363.15108182 703.43721033 -363.00429373 704.80248848 -362.9375 707.875 C-364.43580269 712.28177262 -367.22878585 714.40777827 -371 717 C-371.56332031 717.38929688 -372.12664063 717.77859375 -372.70703125 718.1796875 C-376.24007517 719.44363848 -379.69066983 719.10595351 -383.375 718.875 C-384.20862061 718.82496826 -385.04224121 718.77493652 -385.90112305 718.72338867 C-454.55246092 713.81744915 -524.12685955 675.62586023 -583.37939453 642.70581055 C-591.78729996 638.05638466 -600.31155135 633.63706094 -608.8520813 629.23751831 C-610.51719067 628.37951497 -612.18149536 627.51994795 -613.84494019 626.65872192 C-616.19369619 625.44351469 -618.54555607 624.23454031 -620.8984375 623.02734375 C-621.59658066 622.66534882 -622.29472382 622.30335388 -623.01402283 621.9303894 C-633.51321239 616.4465008 -633.51321239 616.4465008 -644.95956421 617.60574341 C-647.25098298 618.34876553 -649.52151757 619.13947853 -651.79296875 619.94140625 C-652.62081375 620.22853989 -653.44865875 620.51567352 -654.30158997 620.81150818 C-656.93183564 621.72395818 -659.55989072 622.64248762 -662.1875 623.5625 C-665.65834911 624.77740784 -669.1312329 625.98622271 -672.60546875 627.19140625 C-673.40236618 627.47262833 -674.19926361 627.7538504 -675.02030945 628.04359436 C-678.12787577 629.12127895 -680.68583042 630 -684 630 C-684 630.66 -684 631.32 -684 632 C-682.85724609 632.10054687 -682.85724609 632.10054687 -681.69140625 632.203125 C-654.22638777 638.13208137 -627.93941185 659.01409027 -608 678 C-607.19691406 678.73863281 -606.39382813 679.47726562 -605.56640625 680.23828125 C-591.74649636 693.33965163 -580.4664118 712.17888519 -579.5625 731.5 C-579.66504336 734.86234283 -579.82517829 735.76107699 -581.875 738.5625 C-585.54950972 741.04819775 -587.90842997 741.26013718 -592.375 740.6875 C-599.5463339 738.8092935 -605.30663813 733.77106392 -610.5625 728.75 C-632.202972 708.62092605 -663.62593026 700.03710656 -691 691 C-710.87098487 684.43576195 -730.48227839 677.86124452 -749 668 C-750.9972628 666.99454424 -752.9963593 665.99268521 -755 665 C-736.83001496 684.03982475 -715.35394745 696.28705807 -692 708 C-691.24605957 708.37898437 -690.49211914 708.75796875 -689.71533203 709.1484375 C-676.81930384 715.57079837 -663.42926308 720.81059051 -650 726 C-648.69313232 726.50998535 -648.69313232 726.50998535 -647.35986328 727.03027344 C-606.65443204 742.81254062 -563.70422825 754.01395959 -520.87597656 762.25048828 C-517.21263021 762.95888292 -513.55543836 763.69325401 -509.8984375 764.43359375 C-496.76718941 767.03680443 -483.71531343 768.85812464 -470.37573242 769.92480469 C-469.22306885 770.02438477 -468.07040527 770.12396484 -466.8828125 770.2265625 C-465.35744873 770.34378662 -465.35744873 770.34378662 -463.80126953 770.46337891 C-460.62997598 771.07088311 -458.61231115 772.12343655 -456 774 C-454.4452331 777.10953379 -454.71355563 779.56266761 -455 783 C-458.07692308 788.53846154 -458.07692308 788.53846154 -461 790 C-463.58848232 790.12512989 -466.14850132 790.1881994 -468.73828125 790.203125 C-469.54514877 790.21009399 -470.3520163 790.21706299 -471.18333435 790.22424316 C-473.89310733 790.242015 -476.60267052 790.24800359 -479.3125 790.25 C-480.72347961 790.25151062 -480.72347961 790.25151062 -482.16296387 790.25305176 C-558.8665342 790.19843103 -636.82819622 781.6805805 -710 758 C-711.3295874 757.57315918 -711.3295874 757.57315918 -712.68603516 757.13769531 C-750.1407741 744.99374161 -785.01648565 726.55166178 -815 701 C-815.74894531 700.38125 -816.49789062 699.7625 -817.26953125 699.125 C-821.8277787 695.28647583 -826.02519268 691.07227535 -830.25 686.875 C-830.85344238 686.27631104 -831.45688477 685.67762207 -832.07861328 685.06079102 C-841 676.10579036 -841 676.10579036 -841 673 C-841.91604004 673.19577637 -841.91604004 673.19577637 -842.85058594 673.39550781 C-859.812783 676.98668858 -876.79351065 679.86106467 -894 682 C-894.94955566 682.12004395 -895.89911133 682.24008789 -896.87744141 682.36376953 C-915.96864589 684.67649714 -934.63837272 684 -954 684 C-954 653.31 -954 622.62 -954 591 C-950.64894667 589.32447334 -946.85573718 589.716045 -943.1640625 589.60546875 C-941.30969923 589.53968412 -939.45537078 589.47291223 -937.60107422 589.40527344 C-936.62555603 589.37042847 -935.65003784 589.3355835 -934.6449585 589.29968262 C-907.00175159 588.27281841 -880.87729185 584.74297066 -854 578 C-857.26440681 574.7000578 -857.26440681 574.7000578 -860.6328125 571.5078125 C-881.00981089 552.62441609 -893.35348165 523.13468689 -901 497 C-901.25990723 496.12408203 -901.51981445 495.24816406 -901.78759766 494.34570312 C-910.46283664 464.74608429 -922.33044859 423.14325083 -917 392 C-914.85490713 388.70055631 -913.81256984 387.27661952 -910.0625 386 C-906.26690154 386 -905.0080747 386.70230125 -902 389 C-900.53037092 391.39165288 -899.32914731 393.61448205 -898.1640625 396.14453125 C-897.82444489 396.85277542 -897.48482727 397.56101959 -897.13491821 398.29072571 C-896.07280893 400.51955269 -895.03366572 402.75785655 -894 405 C-893.51968323 406.03323395 -893.51968323 406.03323395 -893.02966309 407.08734131 C-891.11337319 411.21569681 -889.23005937 415.35834211 -887.35925293 419.50747681 C-859.27698276 491.8972286 -859.27698276 491.8972286 -809 547 C-815.40800413 518.66914806 -824.88764332 491.56485939 -834.71365356 464.26895142 C-850.22331849 421.16548759 -863.32894272 378.44576909 -859.1875 332.125 C-859.08260254 330.86707642 -859.08260254 330.86707642 -858.97558594 329.58374023 C-858.39058707 323.88349725 -857.32085626 319.93404688 -852.75 316.125 C-848.79187422 314.50576673 -847.09572804 314.63475732 -843 316 C-806.81999902 344.02771026 -793.41749902 400.68564346 -787.75 443.3125 C-787.59893799 444.43454834 -787.44787598 445.55659668 -787.29223633 446.71264648 C-784.24978993 471.49322653 -783.70611617 496.26612067 -783.8626709 521.19146729 C-783.88369025 524.91407846 -783.89238024 528.63672073 -783.90234375 532.359375 C-783.92334973 539.57299583 -783.95715313 546.78647212 -784 554 C-776.38076378 551.85708059 -768.78374752 549.69830357 -761.28515625 547.16015625 C-760.16964638 546.78690468 -760.16964638 546.78690468 -759.03160095 546.40611267 C-756.70758732 545.62779346 -754.3850112 544.84528946 -752.0625 544.0625 C-750.51897674 543.54463405 -748.97535722 543.02705496 -747.43164062 542.50976562 C-746.67201019 542.25504486 -745.91237976 542.0003241 -745.12973022 541.73788452 C-743.61937637 541.23143053 -742.10898067 540.72510135 -740.59854126 540.21890259 C-736.94087833 538.99188208 -733.28609071 537.75737792 -729.63623047 536.50732422 C-728.94806747 536.27339462 -728.25990448 536.03946503 -727.55088806 535.79844666 C-725.67931655 535.16213786 -723.80921018 534.52152424 -721.93920898 533.88061523 C-719 533 -719 533 -716 533 C-718.60050216 530.37555215 -721.21695989 527.79614507 -723.91015625 525.265625 C-764.70824999 486.59337428 -787.55386397 414.79491679 -789.51220703 359.62646484 C-789.53710205 358.38823975 -789.53710205 358.38823975 -789.5625 357.125 C-789.60286377 355.96605225 -789.60286377 355.96605225 -789.64404297 354.78369141 C-789.61717916 350.96643147 -789.31893537 349.33591695 -786.65234375 346.52734375 C-783.36760207 344.63583566 -781.73047968 344.30053506 -778 345 C-772.7787689 348.48082073 -771.68391978 353.19383582 -769.9921875 359.0625 C-768.99279721 362.02132478 -767.69849381 364.38988523 -766 367 C-766.06058594 366.40799805 -766.12117187 365.81599609 -766.18359375 365.20605469 C-771.02110735 316.92394775 -763.87814217 271.15785051 -735 231 C-734.23558594 229.93652344 -733.47117187 228.87304688 -732.68359375 227.77734375 C-710.0645206 197.28364612 -677.489334 174.53179275 -641 164 C-639.79859375 163.64292969 -638.5971875 163.28585937 -637.359375 162.91796875 C-591.23922642 150.24916251 -542.33405805 157.56081182 -500.93359375 180.8828125 C-496.1028179 183.67392743 -491.51499823 186.72617658 -487 190 C-486.46874512 190.38317383 -485.93749023 190.76634766 -485.39013672 191.16113281 C-474.94186504 198.78036212 -465.95572315 207.70225452 -457 217 C-456.90501221 216.19594727 -456.81002441 215.39189453 -456.7121582 214.56347656 C-452.47335528 179.29462374 -444.07031065 147.3003054 -423 118 C-421.85337891 116.40478516 -421.85337891 116.40478516 -420.68359375 114.77734375 C-398.0645206 84.28364612 -365.489334 61.53179275 -329 51 C-327.79859375 50.64292969 -326.5971875 50.28585938 -325.359375 49.91796875 C-279.23922642 37.24916251 -230.33405805 44.56081182 -188.93359375 67.8828125 C-176.3141028 75.17407394 -164.98635537 84.47669854 -154 94 C-153.8548999 93.40276123 -153.7097998 92.80552246 -153.56030273 92.19018555 C-147.6848619 68.25125464 -140.65368695 44.51798623 -125 25 C-124.23042969 24.00226563 -124.23042969 24.00226563 -123.4453125 22.984375 C-117.23850598 15.26780473 -108.02409411 8.30502295 -98.140625 6.46875 C-95.75386705 6.22602885 -93.39778204 6.0561183 -91 6 C-90.67 5.01 -90.34 4.02 -90 3 C-86.78447181 1.39223591 -83.47794 1.39514087 -80 2 C-77.03563472 4.51971049 -76.11038012 5.99976532 -75.68359375 9.8671875 C-76.06786532 13.67195045 -77.15043653 15.07073886 -79.5625 18 C-94.72586485 37.82489397 -103.3415469 68.97392699 -103 94 C-102.31421875 93.24203125 -101.6284375 92.4840625 -100.921875 91.703125 C-91.22680591 81.11140212 -81.06726147 70.99982214 -70.86425781 60.90136719 C-70.26804123 60.30938034 -69.67182465 59.71739349 -69.05754089 59.10746765 C-67.94206268 58.00004463 -66.82450234 56.89471256 -65.70429993 55.79206848 C-62.89581918 53.00137178 -60.2271807 50.14305447 -57.64282227 47.14282227 C-53.76452761 42.66308959 -49.6096047 38.50097271 -45.3984375 34.3359375 C-44.59894684 33.54023346 -43.79945618 32.74452942 -42.97573853 31.92471313 C-40.44459086 29.4056814 -37.91021726 26.88993552 -35.375 24.375 C-32.02572202 21.05240443 -28.67982884 17.7264532 -25.3359375 14.3984375 C-24.57437347 13.64517181 -23.81280945 12.89190613 -23.02816772 12.11581421 C-19.92672824 9.02864722 -16.89437357 5.96226462 -14.12744141 2.56884766 C-9.89374983 -2.54325961 -5.90056383 -3.00204125 0 0 Z M-246.52734375 105.078125 C-252.57139899 112.96585757 -253.1857868 121.25366462 -252 131 C-249.45641257 139.47487315 -243.77083338 146.24533989 -236 150.4375 C-228.82792881 153.25728867 -220.40061101 153.32076771 -213.05859375 151.1171875 C-205.24188492 147.5131477 -198.85219505 141.82378957 -195.6640625 133.71484375 C-193.51971367 124.94824117 -193.80682862 115.98995566 -198.45703125 108.1484375 C-203.0560713 101.74471085 -208.17743498 96.91343317 -216 95 C-228.3274274 93.56563413 -238.0559385 95.70550642 -246.52734375 105.078125 Z M-710 282 C-715.2572734 289.83143058 -716.8743722 296.5942533 -716 306 C-714.07869016 313.88199999 -709.81621972 320.94559595 -702.875 325.34765625 C-694.85190026 329.46244454 -686.1773949 330.57816658 -677.32421875 328.31640625 C-668.4568865 324.62551321 -662.84813808 318.74576835 -659 310 C-656.61575385 302.4068594 -657.42663491 294.52639173 -660.67578125 287.35546875 C-665.30052468 279.12915522 -671.19676733 274.93441089 -680 272 C-692.00529907 271.05871048 -701.76840671 272.68314689 -710 282 Z M-413 338 C-413.10022461 338.85529297 -413.20044922 339.71058594 -413.30371094 340.59179688 C-413.77519936 344.56256335 -414.25775123 348.53175901 -414.75 352.5 C-414.83792816 353.20918579 -414.92585632 353.91837158 -415.01644897 354.64904785 C-416.19805549 364.05532626 -417.665358 373.19013036 -420.36328125 382.296875 C-421.26720441 385.07390833 -421.26720441 385.07390833 -420 388 C-408.48992087 379.90102048 -397.23197282 371.47920489 -386 363 C-389.11693414 359.83901025 -392.29220122 356.80652535 -395.625 353.875 C-400.56958102 349.46577211 -405.21779041 344.82360559 -409.84765625 340.08984375 C-411.6195736 337.88389777 -411.6195736 337.88389777 -413 338 Z M-154 458 C-159.08017074 466.01047213 -159.72593424 473.62420139 -159 483 C-157.17964764 490.12537925 -152.86477545 496.40555943 -146.75390625 500.5078125 C-138.9286729 505.00507305 -131.29379883 506.53417123 -122.33984375 504.3515625 C-114.65175889 501.57101867 -108.34489993 497.12500201 -104.5625 489.75 C-101.27381791 482.37627335 -100.67151604 474.20006577 -102.68359375 466.32421875 C-106.37448679 457.4568865 -112.25423165 451.84813808 -121 448 C-133.31512424 444.13305099 -145.6816266 448.47133209 -154 458 Z " fill="#FFFFFF" transform="translate(954,118)"/>
</svg>
