<?xml version="1.0" encoding="UTF-8"?>
<svg version="1.1" xmlns="http://www.w3.org/2000/svg" width="3000" height="1000">
<path d="M0 0 C4.01489897 4.39606026 5.93873076 8.75424656 6.1015625 14.72265625 C4.46673757 30.37687606 -1.35338576 44.86764085 -8 59 C-8.43820068 59.94214355 -8.43820068 59.94214355 -8.88525391 60.90332031 C-17.28600617 78.81812167 -27.77472802 95.73222436 -39 112 C-38.20903931 111.75092896 -38.20903931 111.75092896 -37.40209961 111.49682617 C-22.70764278 106.89952622 -8.46439176 103.33234831 6.875 101.75 C7.74310303 101.65750977 8.61120605 101.56501953 9.50561523 101.46972656 C15.8611077 100.88293461 22.79081824 100.27800003 28.5625 103.375 C31.34350637 108.45335945 30.73910447 114.1004363 29.33984375 119.58984375 C20.51686902 143.7670862 -4.10351261 156.71084169 -26 167 C-45.32000455 175.7114249 -67.45257352 184.23679407 -88.8125 185.4375 C-92.33114467 185.69702268 -92.91164615 185.9308535 -95.875 188.25 C-96.57625 189.1575 -97.2775 190.065 -98 191 C-98.763125 191.721875 -99.52625 192.44375 -100.3125 193.1875 C-102.81004085 197.35006809 -102.33119549 201.26206454 -102 206 C-89.72145892 209.90806838 -77.53911792 212.4917257 -64.703125 213.69140625 C-64.03058937 213.75506441 -63.35805374 213.81872257 -62.66513824 213.88430977 C-43.18059715 215.67711195 -23.64487553 215.17558771 -4.10369873 214.90020752 C1.08035097 214.82781555 6.26405877 214.77114047 11.44850922 214.73730659 C13.84210275 214.71529006 16.23451643 214.66994424 18.62774658 214.62376404 C20.08027248 214.61244305 21.53280812 214.60229067 22.98535156 214.59350586 C24.24784729 214.5755748 25.51034302 214.55764374 26.81109619 214.53916931 C30 215 30 215 32.39935303 216.77931213 C34.31250136 219.43355468 34.55928917 221.66624827 34.7265625 224.90234375 C32.89328036 230.19520671 27.06186903 232.59597427 22.38671875 234.98046875 C20.15930638 236.06122406 17.92585336 237.12959067 15.6875 238.1875 C14.79954239 238.61027725 14.79954239 238.61027725 13.89364624 239.04159546 C-24.52023074 257.30243473 -66.11117117 271.83454269 -109 273 C-109.10699219 273.66386719 -109.21398437 274.32773437 -109.32421875 275.01171875 C-110.16724456 278.73954966 -111.45811646 282.24776252 -112.8125 285.8125 C-113.21299561 286.87718506 -113.21299561 286.87718506 -113.62158203 287.96337891 C-115.47242551 292.81029613 -117.60574378 297.39566112 -120 302 C-120 302.66 -120 303.32 -120 304 C-86.3216593 323.02202576 -51.48117278 339.16975737 -12.24487305 341.14160156 C-6.99036884 341.48082068 -3.74084097 341.91976822 0 346 C1.120324 348.96556353 1.42877185 350.82150428 0.33203125 353.8359375 C-4.56327858 363.30686345 -16.99072376 366.01236728 -26.54296875 369.171875 C-44.63590437 374.3929219 -63.25212141 375.80458664 -82 375 C-82.87027832 374.96277832 -83.74055664 374.92555664 -84.63720703 374.88720703 C-106.85267004 373.75549936 -128.70534323 368.63254256 -149.9375 362.19921875 C-152.9377513 361.29027898 -155.90526129 360.53034837 -159 360 C-157.58460938 360.72703125 -157.58460938 360.72703125 -156.140625 361.46875 C-147.73470573 365.83524678 -139.70473399 370.45940456 -132 376 C-130.40478516 377.14662109 -130.40478516 377.14662109 -128.77734375 378.31640625 C-106.5221734 394.82445103 -89.97708651 415.72201175 -77 440 C-76.48397217 440.96389648 -76.48397217 440.96389648 -75.95751953 441.94726562 C-65.04172105 462.76161972 -58.64941396 487.51286189 -58 511 C-57.97421875 511.69287109 -57.9484375 512.38574219 -57.921875 513.09960938 C-56.56644063 552.84772228 -67.59841877 591.69377296 -91 624 C-91.763125 625.06089844 -92.52625 626.12179687 -93.3125 627.21484375 C-120.30609593 663.63008564 -161.78236308 688.95814359 -206.63671875 695.91015625 C-253.72245886 702.64647697 -299.9842025 692.59295864 -339 665 C-339.59586914 664.58057129 -340.19173828 664.16114258 -340.80566406 663.72900391 C-366.00466195 645.69220007 -394.91607266 614.20729948 -401.6875 582.8125 C-403.62354632 578.66382932 -406.88067706 577.83923387 -410.9375 576.3125 C-426.08628733 570.07458435 -439.65283953 561.7569405 -452.58203125 551.7265625 C-453.44948975 551.05415527 -453.44948975 551.05415527 -454.33447266 550.36816406 C-456 549 -456 549 -457.56787109 547.46777344 C-459.21609896 545.8109476 -459.21609896 545.8109476 -462 544 C-466.35109298 545.08033972 -470.3001492 546.98790032 -474.33984375 548.90625 C-475.57012905 549.48686024 -476.80043592 550.0674248 -478.03076172 550.64794922 C-478.66882751 550.9505365 -479.30689331 551.25312378 -479.96429443 551.56488037 C-493.52551253 557.99166197 -507.18997922 564.1238341 -521 570 C-499.9769517 606.79943541 -453.94359411 629.46666815 -414.41748047 640.51293945 C-405.08390166 643.01723821 -396.04523804 644.75738142 -386.3984375 645.3828125 C-382.47764491 646.09486449 -380.72342245 647.11758302 -378 650 C-377.1369867 652.74448951 -377.3633482 655.20676192 -378 658 C-379.87015094 660.43119623 -381.28138345 661.64069173 -384 663 C-418.40137641 664.46683939 -454.74610003 656.65801234 -488.125 649.375 C-488.79500031 649.22888275 -489.46500061 649.0827655 -490.15530396 648.93222046 C-498.16916411 647.17417934 -506.11020963 645.25218024 -514 643 C-473.13458673 666.48723317 -424.20466291 692.18959732 -376.5300293 697.07861328 C-371.97627272 697.56000643 -368.75387629 698.13366811 -365 701 C-363.15108182 703.43721033 -363.00429373 704.80248848 -362.9375 707.875 C-364.43580269 712.28177262 -367.22878585 714.40777827 -371 717 C-371.56332031 717.38929688 -372.12664063 717.77859375 -372.70703125 718.1796875 C-376.24007517 719.44363848 -379.69066983 719.10595351 -383.375 718.875 C-384.20862061 718.82496826 -385.04224121 718.77493652 -385.90112305 718.72338867 C-454.55246092 713.81744915 -524.12685955 675.62586023 -583.37939453 642.70581055 C-591.78729996 638.05638466 -600.31155135 633.63706094 -608.8520813 629.23751831 C-610.51719067 628.37951497 -612.18149536 627.51994795 -613.84494019 626.65872192 C-616.19369619 625.44351469 -618.54555607 624.23454031 -620.8984375 623.02734375 C-621.59658066 622.66534882 -622.29472382 622.30335388 -623.01402283 621.9303894 C-633.51321239 616.4465008 -633.51321239 616.4465008 -644.95956421 617.60574341 C-647.25098298 618.34876553 -649.52151757 619.13947853 -651.79296875 619.94140625 C-652.62081375 620.22853989 -653.44865875 620.51567352 -654.30158997 620.81150818 C-656.93183564 621.72395818 -659.55989072 622.64248762 -662.1875 623.5625 C-665.65834911 624.77740784 -669.1312329 625.98622271 -672.60546875 627.19140625 C-673.40236618 627.47262833 -674.19926361 627.7538504 -675.02030945 628.04359436 C-678.12787577 629.12127895 -680.68583042 630 -684 630 C-684 630.66 -684 631.32 -684 632 C-682.85724609 632.10054687 -682.85724609 632.10054687 -681.69140625 632.203125 C-654.22638777 638.13208137 -627.93941185 659.01409027 -608 678 C-607.19691406 678.73863281 -606.39382813 679.47726562 -605.56640625 680.23828125 C-591.74649636 693.33965163 -580.4664118 712.17888519 -579.5625 731.5 C-579.66504336 734.86234283 -579.82517829 735.76107699 -581.875 738.5625 C-585.54950972 741.04819775 -587.90842997 741.26013718 -592.375 740.6875 C-599.5463339 738.8092935 -605.30663813 733.77106392 -610.5625 728.75 C-632.202972 708.62092605 -663.62593026 700.03710656 -691 691 C-710.87098487 684.43576195 -730.48227839 677.86124452 -749 668 C-750.9972628 666.99454424 -752.9963593 665.99268521 -755 665 C-736.83001496 684.03982475 -715.35394745 696.28705807 -692 708 C-691.24605957 708.37898437 -690.49211914 708.75796875 -689.71533203 709.1484375 C-676.81930384 715.57079837 -663.42926308 720.81059051 -650 726 C-648.69313232 726.50998535 -648.69313232 726.50998535 -647.35986328 727.03027344 C-606.65443204 742.81254062 -563.70422825 754.01395959 -520.87597656 762.25048828 C-517.21263021 762.95888292 -513.55543836 763.69325401 -509.8984375 764.43359375 C-496.76718941 767.03680443 -483.71531343 768.85812464 -470.37573242 769.92480469 C-469.22306885 770.02438477 -468.07040527 770.12396484 -466.8828125 770.2265625 C-465.35744873 770.34378662 -465.35744873 770.34378662 -463.80126953 770.46337891 C-460.62997598 771.07088311 -458.61231115 772.12343655 -456 774 C-454.4452331 777.10953379 -454.71355563 779.56266761 -455 783 C-458.07692308 788.53846154 -458.07692308 788.53846154 -461 790 C-463.58848232 790.12512989 -466.14850132 790.1881994 -468.73828125 790.203125 C-469.54514877 790.21009399 -470.3520163 790.21706299 -471.18333435 790.22424316 C-473.89310733 790.242015 -476.60267052 790.24800359 -479.3125 790.25 C-480.72347961 790.25151062 -480.72347961 790.25151062 -482.16296387 790.25305176 C-558.8665342 790.19843103 -636.82819622 781.6805805 -710 758 C-711.3295874 757.57315918 -711.3295874 757.57315918 -712.68603516 757.13769531 C-750.1407741 744.99374161 -785.01648565 726.55166178 -815 701 C-815.74894531 700.38125 -816.49789062 699.7625 -817.26953125 699.125 C-821.8277787 695.28647583 -826.02519268 691.07227535 -830.25 686.875 C-830.85344238 686.27631104 -831.45688477 685.67762207 -832.07861328 685.06079102 C-841 676.10579036 -841 676.10579036 -841 673 C-841.91604004 673.19577637 -841.91604004 673.19577637 -842.85058594 673.39550781 C-859.812783 676.98668858 -876.79351065 679.86106467 -894 682 C-894.94955566 682.12004395 -895.89911133 682.24008789 -896.87744141 682.36376953 C-915.96864589 684.67649714 -934.63837272 684 -954 684 C-954 653.31 -954 622.62 -954 591 C-950.64894667 589.32447334 -946.85573718 589.716045 -943.1640625 589.60546875 C-941.30969923 589.53968412 -939.45537078 589.47291223 -937.60107422 589.40527344 C-936.62555603 589.37042847 -935.65003784 589.3355835 -934.6449585 589.29968262 C-907.00175159 588.27281841 -880.87729185 584.74297066 -854 578 C-857.26440681 574.7000578 -857.26440681 574.7000578 -860.6328125 571.5078125 C-881.00981089 552.62441609 -893.35348165 523.13468689 -901 497 C-901.25990723 496.12408203 -901.51981445 495.24816406 -901.78759766 494.34570312 C-910.46283664 464.74608429 -922.33044859 423.14325083 -917 392 C-914.85490713 388.70055631 -913.81256984 387.27661952 -910.0625 386 C-906.26690154 386 -905.0080747 386.70230125 -902 389 C-900.53037092 391.39165288 -899.32914731 393.61448205 -898.1640625 396.14453125 C-897.82444489 396.85277542 -897.48482727 397.56101959 -897.13491821 398.29072571 C-896.07280893 400.51955269 -895.03366572 402.75785655 -894 405 C-893.51968323 406.03323395 -893.51968323 406.03323395 -893.02966309 407.08734131 C-891.11337319 411.21569681 -889.23005937 415.35834211 -887.35925293 419.50747681 C-859.27698276 491.8972286 -859.27698276 491.8972286 -809 547 C-815.40800413 518.66914806 -824.88764332 491.56485939 -834.71365356 464.26895142 C-850.22331849 421.16548759 -863.32894272 378.44576909 -859.1875 332.125 C-859.08260254 330.86707642 -859.08260254 330.86707642 -858.97558594 329.58374023 C-858.39058707 323.88349725 -857.32085626 319.93404688 -852.75 316.125 C-848.79187422 314.50576673 -847.09572804 314.63475732 -843 316 C-806.81999902 344.02771026 -793.41749902 400.68564346 -787.75 443.3125 C-787.59893799 444.43454834 -787.44787598 445.55659668 -787.29223633 446.71264648 C-784.24978993 471.49322653 -783.70611617 496.26612067 -783.8626709 521.19146729 C-783.88369025 524.91407846 -783.89238024 528.63672073 -783.90234375 532.359375 C-783.92334973 539.57299583 -783.95715313 546.78647212 -784 554 C-776.38076378 551.85708059 -768.78374752 549.69830357 -761.28515625 547.16015625 C-760.16964638 546.78690468 -760.16964638 546.78690468 -759.03160095 546.40611267 C-756.70758732 545.62779346 -754.3850112 544.84528946 -752.0625 544.0625 C-750.51897674 543.54463405 -748.97535722 543.02705496 -747.43164062 542.50976562 C-746.67201019 542.25504486 -745.91237976 542.0003241 -745.12973022 541.73788452 C-743.61937637 541.23143053 -742.10898067 540.72510135 -740.59854126 540.21890259 C-736.94087833 538.99188208 -733.28609071 537.75737792 -729.63623047 536.50732422 C-728.94806747 536.27339462 -728.25990448 536.03946503 -727.55088806 535.79844666 C-725.67931655 535.16213786 -723.80921018 534.52152424 -721.93920898 533.88061523 C-719 533 -719 533 -716 533 C-718.60050216 530.37555215 -721.21695989 527.79614507 -723.91015625 525.265625 C-764.70824999 486.59337428 -787.55386397 414.79491679 -789.51220703 359.62646484 C-789.53710205 358.38823975 -789.53710205 358.38823975 -789.5625 357.125 C-789.60286377 355.96605225 -789.60286377 355.96605225 -789.64404297 354.78369141 C-789.61717916 350.96643147 -789.31893537 349.33591695 -786.65234375 346.52734375 C-783.36760207 344.63583566 -781.73047968 344.30053506 -778 345 C-772.7787689 348.48082073 -771.68391978 353.19383582 -769.9921875 359.0625 C-768.99279721 362.02132478 -767.69849381 364.38988523 -766 367 C-766.06058594 366.40799805 -766.12117187 365.81599609 -766.18359375 365.20605469 C-771.02110735 316.92394775 -763.87814217 271.15785051 -735 231 C-734.23558594 229.93652344 -733.47117187 228.87304688 -732.68359375 227.77734375 C-710.0645206 197.28364612 -677.489334 174.53179275 -641 164 C-639.79859375 163.64292969 -638.5971875 163.28585937 -637.359375 162.91796875 C-591.23922642 150.24916251 -542.33405805 157.56081182 -500.93359375 180.8828125 C-496.1028179 183.67392743 -491.51499823 186.72617658 -487 190 C-486.46874512 190.38317383 -485.93749023 190.76634766 -485.39013672 191.16113281 C-474.94186504 198.78036212 -465.95572315 207.70225452 -457 217 C-456.90501221 216.19594727 -456.81002441 215.39189453 -456.7121582 214.56347656 C-452.47335528 179.29462374 -444.07031065 147.3003054 -423 118 C-421.85337891 116.40478516 -421.85337891 116.40478516 -420.68359375 114.77734375 C-398.0645206 84.28364612 -365.489334 61.53179275 -329 51 C-327.79859375 50.64292969 -326.5971875 50.28585938 -325.359375 49.91796875 C-279.23922642 37.24916251 -230.33405805 44.56081182 -188.93359375 67.8828125 C-176.3141028 75.17407394 -164.98635537 84.47669854 -154 94 C-153.8548999 93.40276123 -153.7097998 92.80552246 -153.56030273 92.19018555 C-147.6848619 68.25125464 -140.65368695 44.51798623 -125 25 C-124.23042969 24.00226563 -124.23042969 24.00226563 -123.4453125 22.984375 C-117.23850598 15.26780473 -108.02409411 8.30502295 -98.140625 6.46875 C-95.75386705 6.22602885 -93.39778204 6.0561183 -91 6 C-90.67 5.01 -90.34 4.02 -90 3 C-86.78447181 1.39223591 -83.47794 1.39514087 -80 2 C-77.03563472 4.51971049 -76.11038012 5.99976532 -75.68359375 9.8671875 C-76.06786532 13.67195045 -77.15043653 15.07073886 -79.5625 18 C-94.72586485 37.82489397 -103.3415469 68.97392699 -103 94 C-102.31421875 93.24203125 -101.6284375 92.4840625 -100.921875 91.703125 C-91.22680591 81.11140212 -81.06726147 70.99982214 -70.86425781 60.90136719 C-70.26804123 60.30938034 -69.67182465 59.71739349 -69.05754089 59.10746765 C-67.94206268 58.00004463 -66.82450234 56.89471256 -65.70429993 55.79206848 C-62.89581918 53.00137178 -60.2271807 50.14305447 -57.64282227 47.14282227 C-53.76452761 42.66308959 -49.6096047 38.50097271 -45.3984375 34.3359375 C-44.59894684 33.54023346 -43.79945618 32.74452942 -42.97573853 31.92471313 C-40.44459086 29.4056814 -37.91021726 26.88993552 -35.375 24.375 C-32.02572202 21.05240443 -28.67982884 17.7264532 -25.3359375 14.3984375 C-24.57437347 13.64517181 -23.81280945 12.89190613 -23.02816772 12.11581421 C-19.92672824 9.02864722 -16.89437357 5.96226462 -14.12744141 2.56884766 C-9.89374983 -2.54325961 -5.90056383 -3.00204125 0 0 Z M-246.52734375 105.078125 C-252.57139899 112.96585757 -253.1857868 121.25366462 -252 131 C-249.45641257 139.47487315 -243.77083338 146.24533989 -236 150.4375 C-228.82792881 153.25728867 -220.40061101 153.32076771 -213.05859375 151.1171875 C-205.24188492 147.5131477 -198.85219505 141.82378957 -195.6640625 133.71484375 C-193.51971367 124.94824117 -193.80682862 115.98995566 -198.45703125 108.1484375 C-203.0560713 101.74471085 -208.17743498 96.91343317 -216 95 C-228.3274274 93.56563413 -238.0559385 95.70550642 -246.52734375 105.078125 Z M-710 282 C-715.2572734 289.83143058 -716.8743722 296.5942533 -716 306 C-714.07869016 313.88199999 -709.81621972 320.94559595 -702.875 325.34765625 C-694.85190026 329.46244454 -686.1773949 330.57816658 -677.32421875 328.31640625 C-668.4568865 324.62551321 -662.84813808 318.74576835 -659 310 C-656.61575385 302.4068594 -657.42663491 294.52639173 -660.67578125 287.35546875 C-665.30052468 279.12915522 -671.19676733 274.93441089 -680 272 C-692.00529907 271.05871048 -701.76840671 272.68314689 -710 282 Z M-413 338 C-413.10022461 338.85529297 -413.20044922 339.71058594 -413.30371094 340.59179688 C-413.77519936 344.56256335 -414.25775123 348.53175901 -414.75 352.5 C-414.83792816 353.20918579 -414.92585632 353.91837158 -415.01644897 354.64904785 C-416.19805549 364.05532626 -417.665358 373.19013036 -420.36328125 382.296875 C-421.26720441 385.07390833 -421.26720441 385.07390833 -420 388 C-408.48992087 379.90102048 -397.23197282 371.47920489 -386 363 C-389.11693414 359.83901025 -392.29220122 356.80652535 -395.625 353.875 C-400.56958102 349.46577211 -405.21779041 344.82360559 -409.84765625 340.08984375 C-411.6195736 337.88389777 -411.6195736 337.88389777 -413 338 Z M-154 458 C-159.08017074 466.01047213 -159.72593424 473.62420139 -159 483 C-157.17964764 490.12537925 -152.86477545 496.40555943 -146.75390625 500.5078125 C-138.9286729 505.00507305 -131.29379883 506.53417123 -122.33984375 504.3515625 C-114.65175889 501.57101867 -108.34489993 497.12500201 -104.5625 489.75 C-101.27381791 482.37627335 -100.67151604 474.20006577 -102.68359375 466.32421875 C-106.37448679 457.4568865 -112.25423165 451.84813808 -121 448 C-133.31512424 444.13305099 -145.6816266 448.47133209 -154 458 Z " fill="#FFFFFF" transform="translate(954,118)"/>
<path d="M0 0 C10.69987982 8.96751832 19.11745462 18.24192272 26.0625 30.375 C26.62710938 31.35082031 27.19171875 32.32664062 27.7734375 33.33203125 C32.22851518 41.59767029 34.75403912 50.32266854 37.0625 59.375 C37.2996875 60.28507812 37.536875 61.19515625 37.78125 62.1328125 C44.14290184 91.22801428 39.19828621 123.50290197 27.0625 150.375 C26.53914063 151.54417969 26.01578125 152.71335937 25.4765625 153.91796875 C10.81281848 184.93213158 -16.43554719 211.58077373 -48.78295898 223.40795898 C-78.7245128 233.68356371 -112.12223246 233.42206404 -140.87133789 219.57299805 C-154.17661849 212.87831532 -165.51078243 202.82892616 -174.9375 191.375 C-182.92306487 223.63503839 -190.47065439 255.99136083 -197.9375 288.375 C-186.0575 288.705 -174.1775 289.035 -161.9375 289.375 C-163.6730016 303.25901282 -167.64097001 316.7768138 -170.9375 330.375 C-207.5675 330.375 -244.1975 330.375 -281.9375 330.375 C-277.33873457 307.38117284 -277.33873457 307.38117284 -275.1875 298.625 C-274.445 295.5725 -273.7025 292.52 -272.9375 289.375 C-263.3675 289.375 -253.7975 289.375 -243.9375 289.375 C-243.2775 285.745 -242.6175 282.115 -241.9375 278.375 C-241.22688015 275.14136239 -240.49890099 271.91925817 -239.73632812 268.69824219 C-239.52367152 267.7900023 -239.31101492 266.88176241 -239.09191418 265.9460001 C-238.38678332 262.9373439 -237.67776566 259.92961787 -236.96875 256.921875 C-236.45937454 254.75186326 -235.95025143 252.58179228 -235.44136047 250.41166687 C-234.3486135 245.75404022 -233.25416274 241.09681853 -232.15835571 236.43991089 C-230.42019335 229.05309799 -228.68574232 221.66541683 -226.9519043 214.27758789 C-225.14003688 206.55815935 -223.32789941 198.83879462 -221.514328 191.11976624 C-215.47678882 165.4221142 -209.45598452 139.72055423 -203.4375 114.01843262 C-201.7856394 106.96432364 -200.1331135 99.91037062 -198.48046875 92.85644531 C-193.28932986 70.69831957 -188.10396008 48.53889453 -182.9375 26.375 C-193.8275 26.375 -204.7175 26.375 -215.9375 26.375 C-215.27369899 21.06459188 -214.55138685 16.25612689 -213.34375 11.1015625 C-213.19216431 10.45174408 -213.04057861 9.80192566 -212.88439941 9.13241577 C-212.56699377 7.7758028 -212.24760109 6.41965328 -211.92626953 5.06396484 C-211.43399952 2.98521826 -210.94897825 0.90487349 -210.46484375 -1.17578125 C-208.07928228 -11.34143544 -208.07928228 -11.34143544 -206.9375 -13.625 C-180.8675 -13.625 -154.7975 -13.625 -127.9375 -13.625 C-129.07030583 -6.82816504 -130.18995533 -0.11294654 -131.5625 6.625 C-131.82289063 7.90890625 -132.08328125 9.1928125 -132.3515625 10.515625 C-132.54492188 11.45921875 -132.73828125 12.4028125 -132.9375 13.375 C-132.45023438 12.90191406 -131.96296875 12.42882812 -131.4609375 11.94140625 C-96.84595955 -20.34492773 -39.09854751 -30.07101663 0 0 Z M-130.9375 53.375 C-134.5774867 57.83466354 -137.81754982 62.54155763 -140.9375 67.375 C-141.64777344 68.47457031 -142.35804688 69.57414062 -143.08984375 70.70703125 C-156.51575884 92.84304097 -162.44660486 119.00902623 -157.9375 144.6875 C-153.47741516 162.40101229 -144.0829076 173.8158198 -129.01171875 183.62890625 C-112.60038887 192.90803955 -90.96501815 192.4922792 -73.265625 187.765625 C-61.87717331 184.33166342 -51.66385703 178.43676693 -42.9375 170.375 C-42.03515625 169.55257812 -41.1328125 168.73015625 -40.203125 167.8828125 C-20.06982099 148.69499515 -7.75347943 120.99517862 -6.734375 93.18359375 C-6.42386139 75.6515178 -9.27783321 59.70394908 -19.9375 45.375 C-20.38867188 44.75753906 -20.83984375 44.14007813 -21.3046875 43.50390625 C-31.55433856 30.50364261 -47.12960127 25.41421894 -62.9375 23.375 C-89.93085385 20.88697622 -113.57486509 33.46128911 -130.9375 53.375 Z " fill="#FEFEFE" transform="translate(2245.9375,423.625)"/>
<path d="M0 0 C0.7528125 0.64582031 1.505625 1.29164063 2.28125 1.95703125 C3.250625 2.72273438 4.22 3.4884375 5.21875 4.27734375 C8.54464754 7.05050578 11.15189931 10.21909118 13.78125 13.64453125 C14.25973389 14.26465088 14.73821777 14.88477051 15.23120117 15.52368164 C30.32644604 35.34372532 36.38719439 58.58200187 36.53125 83.26953125 C36.5621875 84.53120117 36.5621875 84.53120117 36.59375 85.81835938 C36.65229158 95.89482817 34.82849606 104.64205749 33.28125 114.95703125 C-28.09875 114.95703125 -89.47875 114.95703125 -152.71875 114.95703125 C-155.12898032 134.23887379 -152.93872751 152.66164845 -140.8359375 168.421875 C-131.11871987 180.05743634 -117.60405016 186.11298179 -102.71875 187.95703125 C-84.15174046 189.42830098 -67.33628218 184.04716833 -52.78125 172.58203125 C-46.77854495 167.35913381 -41.14129886 161.59085454 -36.71875 154.95703125 C-30.60432276 156.89712916 -24.69985745 159.12738711 -18.81640625 161.6796875 C-18.01263046 162.02583603 -17.20885468 162.37198456 -16.38072205 162.72862244 C-14.70018847 163.4536806 -13.0204717 164.18063472 -11.34155273 164.90942383 C-8.76620464 166.02605468 -6.18700988 167.13343929 -3.60742188 168.24023438 C-1.96851169 168.94866768 -0.32983128 169.65763286 1.30859375 170.3671875 C2.07936752 170.69743423 2.8501413 171.02768097 3.64427185 171.36793518 C9.05174656 173.72752781 9.05174656 173.72752781 11.28125 175.95703125 C-8.2808033 203.5979585 -36.35793731 220.82130371 -69.79296875 226.9296875 C-92.5351623 230.7109146 -115.67231491 229.9628984 -137.71875 222.95703125 C-138.81703125 222.60898437 -139.9153125 222.2609375 -141.046875 221.90234375 C-165.05890016 213.49233494 -183.42152789 194.25822087 -194.40625 171.70703125 C-207.74984956 140.64709848 -206.95395283 104.06439956 -194.85498047 72.71923828 C-186.44731712 51.82706369 -174.20243677 34.2311765 -158.71875 17.95703125 C-157.77128906 16.91289062 -157.77128906 16.91289062 -156.8046875 15.84765625 C-117.96487786 -25.55866064 -45.10420762 -37.71918771 0 0 Z M-113.71875 35.95703125 C-114.81896484 36.84455078 -114.81896484 36.84455078 -115.94140625 37.75 C-129.24204105 48.81485056 -137.3972267 64.153223 -143.71875 79.95703125 C-99.49875 79.95703125 -55.27875 79.95703125 -9.71875 79.95703125 C-9.71875 58.52405936 -10.97302557 47.81383772 -24.7421875 32.7421875 C-37.13489659 20.74106959 -51.85043458 17.54488618 -68.48095703 17.66601562 C-85.56310881 17.97436802 -100.89841482 24.68613229 -113.71875 35.95703125 Z " fill="#FEFEFE" transform="translate(2526.71875,425.04296875)"/>
<path d="M0 0 C11.25451595 10.33907685 17.99664046 25.7491086 18.65576172 40.875 C19.05517666 66.83082639 10.81037096 93.05792019 4.92382812 118.11328125 C3.25020431 125.23929276 1.59367303 132.36921319 -0.06086349 139.49967384 C-1.49703867 145.68771703 -2.93603018 151.8751062 -4.375 158.0625 C-4.53122581 158.73444523 -4.68745163 159.40639046 -4.84841156 160.09869766 C-5.88881933 164.57284931 -6.93204969 169.04633575 -7.9765625 173.51953125 C-8.24273376 174.66413818 -8.50890503 175.80874512 -8.78314209 176.98803711 C-9.15079681 178.55980713 -9.15079681 178.55980713 -9.52587891 180.16333008 C-9.73918854 181.07778397 -9.95249817 181.99223785 -10.17227173 182.93440247 C-10.75 185.25 -10.75 185.25 -11.75 188.25 C-0.53 188.25 10.69 188.25 22.25 188.25 C20.70483532 202.15648208 16.64357332 215.67570673 13.25 229.25 C-13.15 229.25 -39.55 229.25 -66.75 229.25 C-64.50007486 215.75044918 -64.50007486 215.75044918 -63.32156372 210.77844238 C-62.92223129 209.0805658 -62.92223129 209.0805658 -62.51483154 207.34838867 C-62.22908264 206.15125244 -61.94333374 204.95411621 -61.64892578 203.72070312 C-61.33950505 202.41158143 -61.030444 201.10237468 -60.72171021 199.79309082 C-60.0615777 196.99681944 -59.39902769 194.20113661 -58.7345314 191.40589905 C-57.67882493 186.96460393 -56.62915969 182.52189381 -55.58029175 178.07897949 C-53.53868788 169.43439955 -51.49146357 160.79115605 -49.44328308 152.14813232 C-46.8434563 141.17696524 -44.24510623 130.20545419 -41.65406787 119.23220778 C-40.78421858 115.54911201 -39.91292713 111.86637067 -39.03805923 108.1844635 C-34.46922045 89.01365626 -34.46922045 89.01365626 -30.32373047 69.74804688 C-30.1650606 68.9744709 -30.00639072 68.20089493 -29.84291267 67.40387726 C-28.17124265 58.89497911 -26.73136148 49.72699358 -31.43359375 41.9609375 C-35.53746106 36.62712777 -40.19597732 33.26602396 -46.765625 31.59375 C-71.04368534 28.7973242 -98.74823037 45.19703723 -117.62109375 59.05078125 C-120.75 61.25 -120.75 61.25 -122.75 61.25 C-122.8629862 61.9790366 -122.9759724 62.7080732 -123.09238243 63.45920181 C-124.25917422 70.7477179 -125.73473619 77.90110522 -127.45556641 85.07714844 C-127.71920486 86.1908078 -127.98284332 87.30446716 -128.25447083 88.45187378 C-129.11638582 92.08861718 -129.98392159 95.72399383 -130.8515625 99.359375 C-131.45440007 101.89804939 -132.0568828 104.43680806 -132.6590271 106.97564697 C-134.07593194 112.9471454 -135.496894 118.91767041 -136.91936815 124.88784432 C-138.54046929 131.69255641 -140.15696553 138.49835977 -141.773103 145.30425215 C-145.09366438 159.28737689 -148.42052487 173.26899507 -151.75 187.25 C-134.92 187.745 -134.92 187.745 -117.75 188.25 C-118.37269335 194.47693347 -118.94360804 199.79809643 -120.34375 205.75390625 C-120.49533569 206.40326645 -120.64692139 207.05262665 -120.80310059 207.72166443 C-121.11944799 209.07077209 -121.43882978 210.4191718 -121.76123047 211.7668457 C-122.25615279 213.83825137 -122.74005533 215.91202074 -123.22265625 217.98632812 C-125.6063451 228.1063451 -125.6063451 228.1063451 -126.75 229.25 C-128.15411317 229.3454693 -129.56299809 229.37188529 -130.97035217 229.37025452 C-131.88045547 229.37162918 -132.79055878 229.37300385 -133.72824097 229.37442017 C-134.73452545 229.37082489 -135.74080994 229.36722961 -136.77758789 229.36352539 C-137.83111954 229.36367142 -138.88465118 229.36381744 -139.97010803 229.3639679 C-143.470978 229.36326826 -146.97179552 229.35547348 -150.47265625 229.34765625 C-152.89261343 229.34579225 -155.31257099 229.34436826 -157.73252869 229.34336853 C-164.11615024 229.33954192 -170.49974921 229.32971041 -176.88336182 229.31866455 C-183.39163914 229.30845351 -189.8999201 229.30387157 -196.40820312 229.29882812 C-209.18881175 229.28808827 -221.96940467 229.27120112 -234.75 229.25 C-234.60097521 227.66381672 -234.44919196 226.07789247 -234.29626465 224.49208069 C-234.21204002 223.60889192 -234.1278154 222.72570314 -234.04103851 221.81575108 C-233.65282712 218.39333878 -232.94414205 215.09756477 -232.15625 211.74609375 C-232.00466431 211.09673355 -231.85307861 210.44737335 -231.69689941 209.77833557 C-231.38055201 208.42922791 -231.06117022 207.0808282 -230.73876953 205.7331543 C-230.24384721 203.66174863 -229.75994467 201.58797926 -229.27734375 199.51367188 C-226.8936549 189.3936549 -226.8936549 189.3936549 -225.75 188.25 C-223.67737924 188.16232888 -221.60179706 188.14304127 -219.52734375 188.15234375 C-218.26728516 188.15556641 -217.00722656 188.15878906 -215.70898438 188.16210938 C-214.36848891 188.17046597 -213.02799412 188.17893093 -211.6875 188.1875 C-210.34310058 188.1925134 -208.9986994 188.19707658 -207.65429688 188.20117188 C-204.35281844 188.21300513 -201.05143833 188.23032721 -197.75 188.25 C-197.5712842 187.33104541 -197.3925684 186.41209082 -197.20843697 185.46528912 C-195.47126134 176.64171733 -193.56016595 167.87820429 -191.48779297 159.1262207 C-191.17349118 157.79066436 -190.85941124 156.45505579 -190.54553223 155.11940002 C-189.70494644 151.54522003 -188.86129798 147.97176971 -188.0170188 144.39846063 C-187.12951671 140.63985744 -186.24487471 136.88058111 -185.3598938 133.12138367 C-183.87715127 126.82475637 -182.39261041 120.52855549 -180.90673828 114.23266602 C-178.81147318 105.35466995 -176.71940746 96.47592226 -174.62801147 87.59701407 C-171.82486681 75.69711944 -169.02079111 63.79744295 -166.21307373 51.89862633 C-165.76583205 50.00305483 -165.3188408 48.10742425 -164.87185669 46.21179199 C-164.60556458 45.08364578 -164.33927246 43.95549957 -164.06491089 42.79316711 C-163.83375013 41.8134258 -163.60258938 40.83368448 -163.36442375 39.82425404 C-162.84055086 37.62938135 -162.29728791 35.43915163 -161.75 33.25 C-176.6 32.755 -176.6 32.755 -191.75 32.25 C-191.08619899 26.93959188 -190.36388685 22.13112689 -189.15625 16.9765625 C-189.00466431 16.32674408 -188.85307861 15.67692566 -188.69689941 15.00741577 C-188.37949377 13.6508028 -188.06010109 12.29465328 -187.73876953 10.93896484 C-187.24649952 8.86021826 -186.76147825 6.77987349 -186.27734375 4.69921875 C-183.89178228 -5.46643544 -183.89178228 -5.46643544 -182.75 -7.75 C-157.67 -7.75 -132.59 -7.75 -106.75 -7.75 C-107.875 1.25 -107.875 1.25 -108.72265625 4.75 C-108.89990234 5.49121094 -109.07714844 6.23242188 -109.25976562 6.99609375 C-109.44216797 7.73988281 -109.62457031 8.48367188 -109.8125 9.25 C-109.99876953 10.02472656 -110.18503906 10.79945313 -110.37695312 11.59765625 C-110.83076178 13.48270759 -111.28982492 15.3664927 -111.75 17.25 C-111.21334717 16.90332275 -110.67669434 16.55664551 -110.1237793 16.19946289 C-78.64362414 -4.0174878 -34.60633616 -27.14674814 0 0 Z " fill="#FEFEFE" transform="translate(1813.75,417.75)"/>
<path d="M0 0 C1.31238144 0.00222061 2.62476288 0.00444122 3.97691345 0.00672913 C4.6988237 0.0065831 5.42073395 0.00643707 6.16452026 0.00628662 C8.56156879 0.00698583 10.95854054 0.01477857 13.35557556 0.02259827 C15.0132442 0.02446242 16.67091338 0.02588633 18.32858276 0.02688599 C22.69996145 0.03071139 27.07130712 0.04054186 31.44267273 0.05158997 C35.89996392 0.0618036 40.35726043 0.0663835 44.81455994 0.07142639 C53.56652824 0.08216412 62.31846968 0.0992408 71.07041931 0.12025452 C70.38186166 6.94706739 68.9198214 13.46624835 67.31407166 20.13124084 C67.03256256 21.31489227 66.75105347 22.4985437 66.46101379 23.71806335 C65.85011088 26.28456746 65.23770606 28.85065801 64.6227684 31.41619301 C63.64115654 35.51244743 62.66661688 39.61036521 61.69313049 43.70855713 C59.09605775 54.63685738 56.48948913 65.56288947 53.87952733 76.48811805 C44.29667094 116.14701741 44.29667094 116.14701741 35.60948181 156.00697327 C35.39723024 157.02731124 35.39723024 157.02731124 35.18069077 158.0682621 C31.90989832 173.4454464 31.90989832 173.4454464 36.07041931 188.12025452 C39.73646355 193.61932087 43.62828843 196.44660948 50.07041931 198.12025452 C75.96533023 201.6142715 102.29327465 183.84409503 122.07041931 169.12025452 C122.827099 168.52470764 123.58377869 167.92916077 124.36338806 167.31556702 C126.07041931 166.12025452 126.07041931 166.12025452 128.07041931 166.12025452 C128.29119141 165.04176743 128.5119635 163.96328033 128.73942566 162.85211182 C131.57388288 149.13301183 134.72935346 135.49619287 137.92979431 121.85853577 C138.48476717 119.48676781 139.039553 117.11495609 139.59416199 114.74310303 C141.03896158 108.56646399 142.48626374 102.39041411 143.93412781 96.2144928 C145.41729885 89.88591503 146.89804721 83.55677049 148.37901306 77.22767639 C151.2738075 64.85798656 154.1714762 52.48897273 157.07041931 40.12025452 C145.85041931 40.12025452 134.63041931 40.12025452 123.07041931 40.12025452 C123.71161499 34.34949338 124.36239202 29.27560224 125.66416931 23.71400452 C125.89154785 22.7378418 125.89154785 22.7378418 126.1235199 21.74195862 C126.44038154 20.3869979 126.75977035 19.03262575 127.08164978 17.67884827 C127.57561812 15.59835823 128.05986734 13.51576713 128.54307556 11.43275452 C130.93174497 1.25892886 130.93174497 1.25892886 132.07041931 0.12025452 C134.56534319 0.02523035 137.03247945 -0.00532114 139.5276947 0.00672913 C140.30812637 0.0065831 141.08855804 0.00643707 141.89263916 0.00628662 C144.48447911 0.00698593 147.07624809 0.01477916 149.66807556 0.02259827 C151.46026571 0.02446238 153.25245637 0.02588631 155.04464722 0.02688599 C159.77112729 0.03071168 164.49757683 0.0405424 169.2240448 0.05158997 C174.04327481 0.06180298 178.86250973 0.06638337 183.68174744 0.07142639 C193.14465151 0.08216462 202.60753287 0.09924166 212.07041931 0.12025452 C210.80598247 8.28540631 209.2031165 16.30615361 207.29576111 24.34388733 C207.02374374 25.50414429 206.75172638 26.66440125 206.47146606 27.8598175 C205.72970167 31.02045139 204.98453624 34.18025944 204.23786902 37.33973789 C203.44026597 40.71875113 202.64730048 44.09885264 201.8538208 47.47883606 C200.33890239 53.92897869 198.82018178 60.37821942 197.29994756 66.82711101 C195.45699122 74.6455272 193.61791761 82.46485516 191.77940369 90.28431702 C191.61611769 90.97879409 191.45283169 91.67327116 191.28459764 92.38879299 C190.62577736 95.19090086 189.96697011 97.99301178 189.30823147 100.79513884 C188.48933082 104.27849801 187.6702389 107.76181199 186.85071945 111.24502563 C180.19763881 139.52299452 173.62120372 167.81840992 167.07041931 196.12025452 C176.64041931 196.12025452 186.21041931 196.12025452 196.07041931 196.12025452 C193.77013861 209.92193871 190.35352402 223.51882072 187.07041931 237.12025452 C162.32041931 237.12025452 137.57041931 237.12025452 112.07041931 237.12025452 C112.69875617 231.46522277 113.29247441 226.64588759 114.63291931 221.24525452 C115.42097863 218.05531107 116.07041931 215.40710723 116.07041931 212.12025452 C115.18483337 212.73771545 114.29924744 213.35517639 113.38682556 213.99134827 C89.06503964 230.71818996 60.82316565 244.55158502 30.47666931 240.65931702 C14.47639139 237.6504152 3.13203608 230.28106858 -6.10536194 217.01478577 C-22.08544184 191.65881317 -12.20740609 161.97705231 -6.08973694 134.88978577 C1.10330893 103.25589787 8.61865932 71.69394896 16.07041931 40.12025452 C6.50041931 40.12025452 -3.06958069 40.12025452 -12.92958069 40.12025452 C-10.76312719 30.25085523 -8.55559354 20.39378442 -6.24208069 10.55775452 C-6.02785461 9.63583313 -5.81362854 8.71391174 -5.59291077 7.76405334 C-5.39076965 6.91093567 -5.18862854 6.05781799 -4.98036194 5.17884827 C-4.80158508 4.41886536 -4.62280823 3.65888245 -4.43861389 2.87586975 C-3.57967826 -0.08653128 -3.24145439 0.13305642 0 0 Z " fill="#FEFEFE" transform="translate(1353.9295806884766,409.87974548339844)"/>
<path d="M0 0 C34.98 0 69.96 0 106 0 C103.75 13.5 103.75 13.5 102.2734375 19.515625 C101.9640625 20.78535156 101.6546875 22.05507813 101.3359375 23.36328125 C101.01572175 24.65887808 100.69540814 25.95445073 100.375 27.25 C100.04647331 28.59234967 99.71834607 29.93479717 99.390625 31.27734375 C98.59765612 34.51918712 97.7993802 37.75973159 97 41 C88.09 41 79.18 41 70 41 C69.67 43.64 69.34 46.28 69 49 C68.72544419 50.45309008 68.42690021 51.90221015 68.08782959 53.34161377 C67.82058154 54.48983376 67.82058154 54.48983376 67.54793453 55.66125011 C67.35390325 56.4758989 67.15987196 57.2905477 66.95996094 58.12988281 C66.7521956 59.01711438 66.54443026 59.90434595 66.330369 60.81846333 C65.63561037 63.78094995 64.93495939 66.74201114 64.234375 69.703125 C63.73181282 71.84121418 63.22964135 73.97939523 62.72782898 76.11766052 C61.35966938 81.94313046 59.98653742 87.76741825 58.61256027 93.5915184 C57.16206503 99.74367995 55.71597312 105.89687589 54.26977539 112.05004883 C53.67171206 114.59449883 53.07364377 117.13894767 52.47557068 119.68339539 C52.02480069 121.60120599 52.02480069 121.60120599 51.56492424 123.55776024 C50.79156341 126.84762391 50.01769168 130.13736719 49.24366599 133.42707449 C44.84919216 152.10454069 40.4759121 170.78686936 36.11861038 189.47304153 C35.13968773 193.6711076 34.16026789 197.86905756 33.18075562 202.06698608 C32.53423134 204.83794947 31.88771933 207.60891572 31.24121094 210.37988281 C31.0822535 211.06117319 30.92329606 211.74246357 30.75952172 212.44439912 C29.0353814 219.83430119 27.31215975 227.22441513 25.59143066 234.6151123 C14.25594636 283.29726512 14.25594636 283.29726512 8.94140625 304.62109375 C8.68094419 305.67088693 8.68094419 305.67088693 8.41522026 306.74188805 C1.50522348 334.51796567 -7.26593934 361.78465985 -21 387 C-21.34498535 387.63486328 -21.6899707 388.26972656 -22.04541016 388.92382812 C-36.60427661 415.31218964 -58.94662844 433.5676674 -87.87304688 442.16015625 C-103.9978047 446.7050247 -120.2701852 448.24829108 -137 448 C-136.60630016 438.98550404 -134.67862052 430.48343194 -132.56152344 421.75366211 C-131.99393628 419.41248847 -131.43749971 417.06886962 -130.8828125 414.72460938 C-130.52667391 413.23161988 -130.16992589 411.73877559 -129.8125 410.24609375 C-129.64580811 409.54721542 -129.47911621 408.8483371 -129.30737305 408.12828064 C-128.11736061 403.23472122 -128.11736061 403.23472122 -127 401 C-125.01318359 400.5769043 -125.01318359 400.5769043 -122.3984375 400.32421875 C-121.4403418 400.22141602 -120.48224609 400.11861328 -119.49511719 400.01269531 C-118.46547852 399.90538086 -117.43583984 399.79806641 -116.375 399.6875 C-99.32780496 397.6637041 -83.30091701 393.40105688 -71.8984375 379.625 C-56.40948897 358.20818228 -49.06626848 331.63346282 -42.875 306.3125 C-42.63256561 305.33228882 -42.39013123 304.35207764 -42.14035034 303.34216309 C-34.58395561 272.77957091 -27.56407384 242.08446378 -20.44464874 211.41799736 C-16.27005047 193.43758334 -12.07279996 175.462522 -7.8660419 157.48961163 C-7.37188921 155.37839854 -6.87777488 153.26717648 -6.3836689 151.15595245 C-3.76706325 139.97587118 -1.14988002 128.79592508 1.46796799 117.61613464 C3.32584129 109.68187073 5.18313524 101.7474718 7.03954887 93.81286621 C7.60608024 91.39202716 8.17286854 88.97124821 8.73994637 86.55053711 C12.21584776 71.71264139 15.63764791 56.86407539 19 42 C5.14 41.505 5.14 41.505 -9 41 C-6.6997193 27.19831581 -3.28310471 13.60143379 0 0 Z " fill="#FEFEFE" transform="translate(1236,306)"/>
<path d="M0 0 C-0.40926672 9.71317572 -2.69982896 18.81080768 -5.0625 28.1875 C-5.44409858 29.72703051 -5.82496339 31.26674308 -6.20507812 32.80664062 C-7.12828278 36.53991086 -8.06134718 40.2705853 -9 44 C-9.70906494 44.01458252 -10.41812988 44.02916504 -11.14868164 44.04418945 C-39.66824834 44.69850947 -64.6215278 48.81275378 -87 68 C-87.58910156 68.44472656 -88.17820312 68.88945312 -88.78515625 69.34765625 C-125.47314033 97.70928933 -132.50788766 158.06353646 -142 200 C-129.13 200 -116.26 200 -103 200 C-104.26106997 205.51813645 -105.52366722 211.03587512 -106.7902832 216.55273438 C-107.22089154 218.43045313 -107.65058287 220.30838242 -108.0793457 222.18652344 C-108.69502897 224.88271789 -109.31398282 227.57814333 -109.93359375 230.2734375 C-110.12529648 231.11619232 -110.31699921 231.95894714 -110.51451111 232.82723999 C-111.88612829 238.77225659 -111.88612829 238.77225659 -113 241 C-151.28 241 -189.56 241 -229 241 C-220 201 -220 201 -219 200 C-216.70848583 199.91209025 -214.41427476 199.89305962 -212.12109375 199.90234375 C-211.09110008 199.90446617 -211.09110008 199.90446617 -210.04029846 199.90663147 C-207.83932199 199.91224521 -205.63844591 199.92479993 -203.4375 199.9375 C-201.94856917 199.94251324 -200.45963676 199.94707645 -198.97070312 199.95117188 C-195.31376925 199.96221907 -191.65689442 199.97949287 -188 200 C-187.91807404 199.40461929 -187.83614807 198.80923859 -187.7517395 198.19581604 C-186.03386523 186.87638916 -183.24325304 175.7874497 -180.6171875 164.65234375 C-180.07834197 162.35446026 -179.53986665 160.05648994 -179.0017395 157.75843811 C-177.58445415 151.70983957 -176.16275776 145.66228691 -174.7399292 139.61499023 C-172.48890284 130.04411731 -170.24478478 120.47162072 -168.00000763 110.89928055 C-167.18466172 107.42354832 -166.36844549 103.94802122 -165.55218506 100.47250366 C-163.15672817 90.26522282 -160.77231215 80.05587444 -158.44628906 69.83251953 C-158.2549621 68.99175275 -158.06363514 68.15098597 -157.86651039 67.2847414 C-156.99851414 63.46529515 -156.13466478 59.64496688 -155.27682495 55.82322693 C-154.98289061 54.52220644 -154.68895552 53.22118613 -154.39501953 51.92016602 C-154.1470462 50.81399429 -153.89907288 49.70782257 -153.64358521 48.56813049 C-153 46 -153 46 -152 44 C-163.88 44 -175.76 44 -188 44 C-186.49076914 30.41692229 -182.41499959 17.23312342 -179 4 C-153.26 4 -127.52 4 -101 4 C-103.24955966 16.37257813 -103.24955966 16.37257813 -104.23681641 20.53149414 C-104.45689362 21.46518326 -104.67697083 22.39887238 -104.90371704 23.3608551 C-105.13400604 24.32587448 -105.36429504 25.29089386 -105.6015625 26.28515625 C-105.9635524 27.81951576 -105.9635524 27.81951576 -106.33285522 29.38487244 C-107.09424672 32.61138347 -107.85924758 35.8370214 -108.625 39.0625 C-109.39767114 42.32016417 -110.16949642 45.57801668 -110.93856812 48.83653259 C-111.41494651 50.85475345 -111.89341604 52.87248209 -112.37417603 54.8896637 C-112.58794891 55.79498337 -112.8017218 56.70030304 -113.02197266 57.63305664 C-113.21135406 58.43038712 -113.40073547 59.22771759 -113.59585571 60.04920959 C-114.06762064 61.99436682 -114.06762064 61.99436682 -114 64 C-113.5153125 63.24976563 -113.030625 62.49953125 -112.53125 61.7265625 C-105.53348587 51.04151497 -97.69841923 41.36508639 -89 32 C-88.43796875 31.38382812 -87.8759375 30.76765625 -87.296875 30.1328125 C-64.00682376 5.59911775 -32.49384925 -0.89218539 0 0 Z " fill="#FEFEFE" transform="translate(2798,406)"/>
<path d="M0 0 C1.08864349 0.00539291 1.08864349 0.00539291 2.19927979 0.01089478 C2.96020432 0.01074875 3.72112885 0.01060272 4.50511169 0.01045227 C7.03202113 0.01115155 9.55885776 0.01894462 12.08575439 0.02676392 C13.83310404 0.02862804 15.58045421 0.03005197 17.32780457 0.03105164 C21.93591749 0.03487724 26.54399909 0.04470788 31.15209961 0.05575562 C35.85068335 0.06596883 40.54927214 0.07054906 45.24786377 0.07559204 C54.47378902 0.08633011 63.69969098 0.10340704 72.92559814 0.12442017 C62.50332782 45.06845989 51.97510703 89.98741634 41.40566826 134.89703894 C40.92416598 136.94300562 40.44270502 138.98898203 39.96125793 141.0349617 C38.11227645 148.89243607 36.26287455 156.74981124 34.41281891 164.60703278 C33.84149402 167.03349403 33.27023968 169.45997189 32.69905853 171.88646698 C31.91288053 175.22602513 31.12633194 178.56549576 30.33966064 181.90493774 C30.10810902 182.88875459 29.87655739 183.87257143 29.63798904 184.8862009 C29.42561977 185.78734088 29.2132505 186.68848085 28.9944458 187.6169281 C28.81096588 188.39597409 28.62748596 189.17502008 28.43844604 189.97767353 C27.94815874 192.02998302 27.43736302 194.07736067 26.92559814 196.12442017 C38.14559814 196.12442017 49.36559814 196.12442017 60.92559814 196.12442017 C60.36872314 198.99129517 59.81184814 201.85817017 59.23809814 204.81192017 C59.07479004 205.66487671 58.91148193 206.51783325 58.7432251 207.39663696 C56.77052309 217.39158978 54.29189469 227.18597469 51.92559814 237.12442017 C16.94559814 237.12442017 -18.03440186 237.12442017 -54.07440186 237.12442017 C-53.41146418 231.82091876 -52.69236675 227.03072823 -51.48065186 221.88613892 C-51.32906616 221.23869217 -51.17748047 220.59124542 -51.02130127 219.92417908 C-50.70386323 218.57176844 -50.38447043 217.21981521 -50.06317139 215.86831665 C-49.57166176 213.80039178 -49.08620537 211.73111621 -48.60174561 209.66152954 C-46.23725707 199.61298581 -46.23725707 199.61298581 -45.07440186 196.12442017 C-36.49440186 195.79442017 -27.91440186 195.46442017 -19.07440186 195.12442017 C-18.26809326 191.69760864 -17.46178467 188.27079712 -16.63104248 184.74014282 C-12.62184652 167.70105998 -8.61265055 150.66197713 -4.60345459 133.62289429 C-4.44434853 132.94669281 -4.28524246 132.27049133 -4.121315 131.57379889 C-3.80128352 130.21366654 -3.48125077 128.85353448 -3.16121674 127.49340272 C-2.36853593 124.12453418 -1.57587689 120.75566053 -0.78326416 117.38677597 C0.76438297 110.80883196 2.31238953 104.23097295 3.86114502 97.65328979 C6.44234652 86.68938403 9.02162222 75.72508105 11.58184814 64.7562561 C12.14115822 62.36380562 12.70062643 59.97139218 13.26014709 57.57899094 C13.75248333 55.47009712 14.24213421 53.36059253 14.73162842 51.2510376 C15.01413452 50.04313568 15.29664063 48.83523376 15.58770752 47.59072876 C15.82533813 46.56901581 16.06296875 45.54730286 16.30780029 44.49462891 C16.92559814 42.12442017 16.92559814 42.12442017 17.92559814 40.12442017 C7.36559814 40.12442017 -3.19440186 40.12442017 -14.07440186 40.12442017 C-13.43320617 34.35365903 -12.78242915 29.27976789 -11.48065186 23.71817017 C-11.32906616 23.06739502 -11.17748047 22.41661987 -11.02130127 21.74612427 C-10.70443963 20.39116355 -10.38505082 19.0367914 -10.06317139 17.68301392 C-9.56920305 15.60252388 -9.08495382 13.51993278 -8.60174561 11.43692017 C-5.91942451 0.01237264 -5.91942451 0.01237264 0 0 Z " fill="#FEFEFE" transform="translate(1914.0744018554688,409.8755798339844)"/>
<path d="M0 0 C6.90433137 6.41214142 9.53988574 13.46567689 10.28515625 22.70703125 C9.92792447 31.85216493 6.80922919 38.16279306 0.4140625 44.69140625 C-6.29196633 50.57125233 -12.76358977 51.57369177 -21.59375 51.26953125 C-30.25533499 50.16589357 -35.97392929 45.80736153 -41.3984375 39.14453125 C-46.28206224 32.2114237 -46.998462 25.20522864 -46.02734375 16.83203125 C-43.93009307 8.80384586 -40.1936362 2.83969402 -33.33984375 -1.91796875 C-22.69485863 -8.0661938 -9.88518926 -7.37352592 0 0 Z " fill="#FEFEFE" transform="translate(1999.02734375,306.16796875)"/>
</svg>
